<?xml version="1.0" encoding="UTF-8" standalone="no"?>
<svg
   viewBox="0 0 461.22 476.26999"
   version="1.1"
   id="svg2"
   sodipodi:docname="sparkles.svg"
   width="461.22"
   height="476.26999"
   inkscape:version="1.4 (e7c3feb1, 2024-10-09)"
   xmlns:inkscape="http://www.inkscape.org/namespaces/inkscape"
   xmlns:sodipodi="http://sodipodi.sourceforge.net/DTD/sodipodi-0.dtd"
   xmlns="http://www.w3.org/2000/svg"
   xmlns:svg="http://www.w3.org/2000/svg">
  <defs
     id="defs2" />
  <sodipodi:namedview
     id="namedview2"
     pagecolor="#ffffff"
     bordercolor="#666666"
     borderopacity="1.0"
     inkscape:showpageshadow="2"
     inkscape:pageopacity="0.0"
     inkscape:pagecheckerboard="0"
     inkscape:deskcolor="#d1d1d1"
     inkscape:zoom="0.28726213"
     inkscape:cx="316.78384"
     inkscape:cy="-38.292552"
     inkscape:window-width="1448"
     inkscape:window-height="711"
     inkscape:window-x="0"
     inkscape:window-y="38"
     inkscape:window-maximized="0"
     inkscape:current-layer="svg2" />
  <g
     class=""
     transform="translate(-31.18,-20.73)"
     id="g2">
    <path
       d="m 237.4,20.73 c -6.1,42.1 -26.8,64.2 -63.9,64 31.6,4.5 63.8,8 63.9,64.07 -0.6,-46.1 24.5,-63.07 64.1,-64.07 -38,-1.5 -64.9,-16.3 -64.1,-64 z m 127.8,11.58 c -9.1,14.25 -20.8,21.29 -38.9,10.28 14.9,11.79 18.6,24.76 10.2,38.97 8.9,-11.18 17.5,-22.73 39,-10.27 C 357.7,61.23 356.7,47.72 365.2,32.31 Z M 59.68,41.69 c -2.7,18.8 -12,28.6 -28.5,28.5 14.1,2 28.4,3.6 28.5,28.52 -0.3,-20.5 10.9,-28.12 28.5,-28.52 -16.9,-0.7 -28.9,-7.3 -28.5,-28.5 z M 431,66.28 c -2.7,18.8 -12,28.6 -28.5,28.5 14.1,2 28.4,3.6 28.5,28.52 -0.3,-20.5 10.9,-28.12 28.5,-28.52 -16.9,-0.7 -28.9,-7.3 -28.5,-28.5 z M 120.3,116.4 c -15.8,53.7 -47.76,48 -79.35,43.4 35.65,10.2 49.35,37.3 43.33,79.4 12.66,-46 42.62,-52.6 79.42,-43.4 -37.6,-12.1 -56.9,-35.4 -43.4,-79.4 z m 187,5 c -8.8,61.6 -39.3,94 -93.6,93.7 46.2,6.5 93.6,11.7 93.6,93.7 -0.8,-67.3 35.9,-92.2 93.8,-93.7 -55.5,-2.2 -94.9,-23.9 -93.8,-93.7 z m 136.8,38.3 c -13.1,21.6 -29.5,28.8 -49.7,20.1 16.3,9.7 33,19.1 20.1,49.6 10.3,-25.2 27.9,-28.7 49.7,-20 -20.3,-9.7 -31.6,-23.9 -20.1,-49.7 z M 50.7,243.2 c 9.16,16.7 7.63,30.1 -5.61,40 12.46,-6.9 24.85,-14.3 39.91,5.6 -12.57,-16.2 -8.2,-29 5.61,-40 -13.92,9.7 -27.47,11.6 -39.91,-5.6 z m 137.2,0.3 c 11.4,26.8 -0.5,41.3 -21.7,50.9 22.7,-8.5 40.8,-4.5 50.9,21.7 -12.7,-31.8 4.8,-41.2 21.7,-50.9 -21,8.5 -37.8,0.9 -50.9,-21.7 z m 228,12.6 c -26.6,64.7 -68.7,91.7 -127.8,76.4 48.6,19.8 98.8,38.5 76.4,127.9 17.5,-73.7 64.4,-90.7 127.9,-76.5 -59.9,-17.5 -96.9,-52 -76.5,-127.8 z M 99.94,295.5 C 115.6,353.3 100.8,393.6 52.62,414 96.08,402.2 140,388.8 171.3,461.4 144.9,402.1 167.9,366 218.6,342.6 c -50,19.2 -93.1,15 -118.66,-47.1 z m 169.36,61 c -21.8,20.6 -43,23.6 -63.2,7.3 15.5,16.3 31.6,32.4 7.2,63.3 19.8,-25.6 41.2,-24.1 63.3,-7.3 -20.2,-17.4 -28.6,-37.5 -7.3,-63.3 z M 443.2,404 c -2.7,18.8 -12,28.6 -28.5,28.5 14.1,2 28.4,3.6 28.5,28.5 -0.3,-20.5 10.9,-28.1 28.5,-28.5 -16.9,-0.7 -28.9,-7.3 -28.5,-28.5 z m -169.7,36 c -2.7,18.8 -12,28.6 -28.5,28.5 14.1,2 28.4,3.6 28.5,28.5 -0.3,-20.5 10.9,-28.1 28.5,-28.5 -16.9,-0.7 -28.9,-7.3 -28.5,-28.5 z"
       fill="#ffffff"
       fill-opacity="1"
       id="path2" />
  </g>
</svg>
